# xmcd
#
# Track frame offsets:
#	150
#	13395
#	24832
#	37290
#	48915
#	59532
#	76477
#	87952
#	109282
#	123082
#	134515
#	147365
#	159455
#	170645
#	181497
#	200747
#	211997
#	222845
#	234942
#	248395
#	260335
#	273937
#	287835
#	300207
#	312490
#	327517
#
# Disc length: 4500
#
# Revision: 5
# Processed by: cddbd v1.5.1PL0 Copyright (c) Steve Scherf et al.
# Submitted via: EasyCDDAExtractor 5.0.6
# Normalized: r4:DSETVAR1
#
DISCID=7d11921a
DTITLE=Various Artist - Smithsonian Classic Country Disc 3
DYEAR=1900
DGENRE=Country
TTITLE0=Jerry Lee Lewis - You Win Again
TTITLE1=Sonny James - Young Love
TTITLE2=Johnny Cash - I Walk the Line
TTITLE3=Ray Price - Crazy Arms
TTITLE4=Jim Reeves - He'll Have to Go
TTITLE5=Patsy Cline - Faded Love
TTITLE6=Johnny Horton - The Battle of New Orleans
TTITLE7=Marty Robbins - El Paso
TTITLE8=Jimmy Dean - Big Bad John
TTITLE9=Louvin Brothers - When I Stop Dreaming
TTITLE10=Bobby Bare - Detroit City
TTITLE11=George Jones and Melba Montgomery - We Must Have Been Out of Our Minds
TTITLE12=Buck Owens - Excuse Me
TTITLE13=Faron Young - Hello Walls
TTITLE14=Bobbie Gentry - Ode to Billie Joe
TTITLE15=Roger Miller - King of the Road
TTITLE16=Porter Wagoner - Green, Green Grass of Home
TTITLE17=Willie Nelson - Funny How Time Slips Away
TTITLE18=Glen Campbell - Gentle on My Mind
TTITLE19=Osborne Brothers - Rocky Top
TTITLE20=Loretta Lynn - Coal Miner's Daughter
TTITLE21=Dolly Parton - Coat of Many Colors
TTITLE22=Johnny Cash - Folsom Prison Blues
TTITLE23=Tammy Wynette - Stand By Your Man
TTITLE24=Tom T. Hall - Homecoming
TTITLE25=Charley Pride - Is Anybody Goin' to San Antone?
EXTD=
EXTT0=Jerry Lee Lewis
EXTT1=Sonny James
EXTT2=Johnny Cash
EXTT3=Ray Price
EXTT4=Jim Reeves
EXTT5=Patsy Cline
EXTT6=Johnny Horton
EXTT7=Marty Robbins
EXTT8=Jimmy Dean
EXTT9=Louvin Brothers
EXTT10=Bobby Bare
EXTT11=George Jones and Melba Montgomery
EXTT12=Buck Owens
EXTT13=Faron Young
EXTT14=Bobbie Gentry
EXTT15=Roger Miller
EXTT16=Porter Wagoner
EXTT17=Willie Nelson
EXTT18=Glen Campbell
EXTT19=Osborne Brothers
EXTT20=Loretta Lynn
EXTT21=Dolly Parton
EXTT22=Johnny Cash
EXTT23=Tammy Wynette
EXTT24=Tom T. Hall
EXTT25=Charley Pride
PLAYORDER=
